<svg width="28" height="28" viewBox="0 0 28 28" fill="none" xmlns="http://www.w3.org/2000/svg">
  <path d="M14 28C21.732 28 28 21.732 28 14C28 6.26801 21.732 0 14 0C6.26801 0 0 6.26801 0 14C0 21.732 6.26801 28 14 28Z" fill="#0052FF"/>
  <path d="M14.0001 5.83301C9.46008 5.83301 5.8334 9.45968 5.8334 13.9997C5.8334 18.5396 9.46008 22.1663 14.0001 22.1663C18.54 22.1663 22.1667 18.5396 22.1667 13.9997C22.1667 9.45968 18.54 5.83301 14.0001 5.83301ZM14.0001 17.4997C11.9751 17.4997 10.3334 15.8579 10.3334 13.833C10.3334 11.808 11.9751 10.1663 14.0001 10.1663C16.025 10.1663 17.6667 11.808 17.6667 13.833C17.6667 15.8579 16.025 17.4997 14.0001 17.4997Z" fill="white"/>
</svg> 