<svg width="28" height="28" viewBox="0 0 28 28" fill="none" xmlns="http://www.w3.org/2000/svg">
  <path d="M24.0819 3.5L15.3 10.2731L16.9235 6.4481L24.0819 3.5Z" fill="#E17726" stroke="#E17726" stroke-width="0.25" stroke-linecap="round" stroke-linejoin="round"/>
  <path d="M3.91809 3.5L12.6269 10.3269L11.0765 6.4481L3.91809 3.5Z" fill="#E27625" stroke="#E27625" stroke-width="0.25" stroke-linecap="round" stroke-linejoin="round"/>
  <path d="M20.9373 18.9731L18.5373 22.7231L23.6623 24.1731L25.1123 19.0731L20.9373 18.9731Z" fill="#E27625" stroke="#E27625" stroke-width="0.25" stroke-linecap="round" stroke-linejoin="round"/>
  <path d="M2.89731 19.0731L4.33731 24.1731L9.45231 22.7231L7.06231 18.9731L2.89731 19.0731Z" fill="#E27625" stroke="#E27625" stroke-width="0.25" stroke-linecap="round" stroke-linejoin="round"/>
  <path d="M9.15231 12.4481L7.76231 14.7481L12.8123 14.9731L12.6423 9.4231L9.15231 12.4481Z" fill="#E27625" stroke="#E27625" stroke-width="0.25" stroke-linecap="round" stroke-linejoin="round"/>
  <path d="M18.8477 12.4481L15.3027 9.3731L15.3027 14.9731L20.3477 14.7481L18.8477 12.4481Z" fill="#E27625" stroke="#E27625" stroke-width="0.25" stroke-linecap="round" stroke-linejoin="round"/>
  <path d="M9.45227 22.7231L12.4773 21.1731L9.87727 19.1231L9.45227 22.7231Z" fill="#E27625" stroke="#E27625" stroke-width="0.25" stroke-linecap="round" stroke-linejoin="round"/>
  <path d="M15.5227 21.1731L18.5377 22.7231L18.1227 19.1231L15.5227 21.1731Z" fill="#E27625" stroke="#E27625" stroke-width="0.25" stroke-linecap="round" stroke-linejoin="round"/>
  <path d="M18.5377 22.7231L15.5227 21.1731L15.7727 23.2231L15.7477 24.1231L18.5377 22.7231Z" fill="#D5BFB2" stroke="#D5BFB2" stroke-width="0.25" stroke-linecap="round" stroke-linejoin="round"/>
  <path d="M9.45227 22.7231L12.2523 24.1231L12.2373 23.2231L12.4773 21.1731L9.45227 22.7231Z" fill="#D5BFB2" stroke="#D5BFB2" stroke-width="0.25" stroke-linecap="round" stroke-linejoin="round"/>
  <path d="M12.3073 17.6231L9.82227 16.8231L11.5723 15.9731L12.3073 17.6231Z" fill="#233447" stroke="#233447" stroke-width="0.25" stroke-linecap="round" stroke-linejoin="round"/>
  <path d="M15.6927 17.6231L16.4277 15.9731L18.1877 16.8231L15.6927 17.6231Z" fill="#233447" stroke="#233447" stroke-width="0.25" stroke-linecap="round" stroke-linejoin="round"/>
  <path d="M9.45231 22.7231L9.89731 18.9731L7.06231 19.0731L9.45231 22.7231Z" fill="#CC6228" stroke="#CC6228" stroke-width="0.25" stroke-linecap="round" stroke-linejoin="round"/>
  <path d="M18.1023 18.9731L18.5373 22.7231L20.9373 19.0731L18.1023 18.9731Z" fill="#CC6228" stroke="#CC6228" stroke-width="0.25" stroke-linecap="round" stroke-linejoin="round"/>
  <path d="M20.3477 14.7481L15.3027 14.9731L15.6927 17.6231L16.4277 15.9731L18.1877 16.8231L20.3477 14.7481Z" fill="#CC6228" stroke="#CC6228" stroke-width="0.25" stroke-linecap="round" stroke-linejoin="round"/>
  <path d="M9.82227 16.8231L11.5723 15.9731L12.3073 17.6231L12.6973 14.9731L7.76227 14.7481L9.82227 16.8231Z" fill="#CC6228" stroke="#CC6228" stroke-width="0.25" stroke-linecap="round" stroke-linejoin="round"/>
  <path d="M7.76227 14.7481L9.87727 19.1231L9.82227 16.8231L7.76227 14.7481Z" fill="#E27525" stroke="#E27525" stroke-width="0.25" stroke-linecap="round" stroke-linejoin="round"/>
  <path d="M18.1877 16.8231L18.1227 19.1231L20.3477 14.7481L18.1877 16.8231Z" fill="#E27525" stroke="#E27525" stroke-width="0.25" stroke-linecap="round" stroke-linejoin="round"/>
  <path d="M12.6973 14.9731L12.3073 17.6231L12.7973 20.6481L12.9023 16.4731L12.6973 14.9731Z" fill="#E27525" stroke="#E27525" stroke-width="0.25" stroke-linecap="round" stroke-linejoin="round"/>
  <path d="M15.3027 14.9731L15.1077 16.4631L15.2027 20.6481L15.6927 17.6231L15.3027 14.9731Z" fill="#E27525" stroke="#E27525" stroke-width="0.25" stroke-linecap="round" stroke-linejoin="round"/>
  <path d="M15.6927 17.6231L15.2027 20.6481L15.5227 21.1731L18.1227 19.1231L18.1877 16.8231L15.6927 17.6231Z" fill="#F5841F" stroke="#F5841F" stroke-width="0.25" stroke-linecap="round" stroke-linejoin="round"/>
  <path d="M9.82227 16.8231L9.87727 19.1231L12.4773 21.1731L12.7973 20.6481L12.3073 17.6231L9.82227 16.8231Z" fill="#F5841F" stroke="#F5841F" stroke-width="0.25" stroke-linecap="round" stroke-linejoin="round"/>
  <path d="M15.7477 24.1231L15.7727 23.2231L15.5427 23.0231H12.4573L12.2373 23.2231L12.2523 24.1231L9.45227 22.7231L10.4773 23.5731L12.4273 24.9231H15.5727L17.5327 23.5731L18.5377 22.7231L15.7477 24.1231Z" fill="#C0AC9D" stroke="#C0AC9D" stroke-width="0.25" stroke-linecap="round" stroke-linejoin="round"/>
  <path d="M15.5227 21.1731L15.2027 20.6481H12.7973L12.4773 21.1731L12.2373 23.2231L12.4573 23.0231H15.5427L15.7727 23.2231L15.5227 21.1731Z" fill="#161616" stroke="#161616" stroke-width="0.25" stroke-linecap="round" stroke-linejoin="round"/>
  <path d="M24.5469 10.1731L25.2969 6.4981L24.0819 3.5L15.5227 9.9731L18.8477 12.4481L23.5173 13.8481L24.5469 12.6481L24.1019 12.3231L24.8169 11.6731L24.2719 11.2481L24.9869 10.6981L24.5469 10.1731Z" fill="#763E1A" stroke="#763E1A" stroke-width="0.25" stroke-linecap="round" stroke-linejoin="round"/>
  <path d="M2.70312 6.4981L3.46312 10.1731L2.99812 10.6981L3.72312 11.2481L3.17812 11.6731L3.89312 12.3231L3.44812 12.6481L4.47812 13.8481L9.14812 12.4481L12.4731 9.9731L3.91387 3.5L2.70312 6.4981Z" fill="#763E1A" stroke="#763E1A" stroke-width="0.25" stroke-linecap="round" stroke-linejoin="round"/>
  <path d="M23.5173 13.8481L18.8473 12.4481L20.3473 14.7481L18.1223 19.1231L20.9373 19.0731H25.1123L23.5173 13.8481Z" fill="#F5841F" stroke="#F5841F" stroke-width="0.25" stroke-linecap="round" stroke-linejoin="round"/>
  <path d="M9.14809 12.4481L4.47809 13.8481L2.89809 19.0731H7.06309L9.87809 19.1231L7.76309 14.7481L9.14809 12.4481Z" fill="#F5841F" stroke="#F5841F" stroke-width="0.25" stroke-linecap="round" stroke-linejoin="round"/>
  <path d="M15.3027 14.9731L15.5227 9.9731L16.9227 6.4481H11.0723L12.4723 9.9731L12.6923 14.9731L12.7873 16.4831L12.7973 20.6481H15.2023L15.2123 16.4831L15.3027 14.9731Z" fill="#F5841F" stroke="#F5841F" stroke-width="0.25" stroke-linecap="round" stroke-linejoin="round"/>
</svg> 