<svg width="28" height="28" viewBox="0 0 28 28" fill="none" xmlns="http://www.w3.org/2000/svg">
  <path d="M14 28C21.732 28 28 21.732 28 14C28 6.26801 21.732 0 14 0C6.26801 0 0 6.26801 0 14C0 21.732 6.26801 28 14 28Z" fill="#3B99FC"/>
  <path d="M8.38525 10.2663C11.5213 7.13025 16.4787 7.13025 19.6148 10.2663L20.0079 10.6594C20.1854 10.8369 20.1854 11.1225 20.0079 11.3L18.8589 12.449C18.7702 12.5377 18.6274 12.5377 18.5387 12.449L17.9921 11.9023C15.7921 9.70231 12.2079 9.70231 10.0079 11.9023L9.42525 12.4849C9.33652 12.5736 9.19377 12.5736 9.10504 12.4849L7.95604 11.3359C7.77854 11.1584 7.77854 10.8728 7.95604 10.6953L8.38525 10.2663ZM22.3213 12.9728L23.3589 14.0105C23.5364 14.188 23.5364 14.4736 23.3589 14.6511L18.0921 19.9178C17.9146 20.0953 17.629 20.0953 17.4515 19.9178L13.8079 16.2741C13.7636 16.2298 13.6921 16.2298 13.6477 16.2741L10.0042 19.9178C9.82671 20.0953 9.54115 20.0953 9.36365 19.9178L4.09671 14.6511C3.91921 14.4736 3.91921 14.188 4.09671 14.0105L5.13427 12.9728C5.31177 12.7953 5.59734 12.7953 5.77484 12.9728L9.41846 16.6165C9.46271 16.6608 9.53427 16.6608 9.57852 16.6165L13.2221 12.9728C13.3996 12.7953 13.6852 12.7953 13.8627 12.9728L17.5063 16.6165C17.5506 16.6608 17.6221 16.6608 17.6663 16.6165L21.31 12.9728C21.4875 12.7953 21.7731 12.7953 21.9506 12.9728H22.3213Z" fill="white"/>
</svg> 